<svg xmlns="http://www.w3.org/2000/svg" viewBox="0 0 2800 420" width="2800" height="420" role="img" aria-labelledby="title desc">
<title id="title">Camera flowers footer band</title>
<desc id="desc">A wide decorative band of surveillance cameras growing from stems and leaves, designed as a bottom-aligned footer motif.</desc>
<rect width="2800" height="420" fill="none"/>


<g transform="translate(-80 420)">
  <path d="M0 0 C34 -75 58 -64 75 -94 C53 -21 22 -8 0 0 Z" fill="#063f32"/>
  <path d="M20 -8 C-34 -52 -51 -52 -68 -78 C-48 -15 -15 -6 20 -8 Z" fill="#063f32" opacity="0.92"/>
</g>

<g transform="translate(5 420)">
  <path d="M0 0 C45 -112 76 -95 99 -140 C70 -31 29 -11 0 0 Z" fill="#0b4b3a"/>
  <path d="M20 -8 C-45 -78 -68 -78 -90 -116 C-63 -22 -20 -9 20 -8 Z" fill="#0b4b3a" opacity="0.92"/>
</g>

<g transform="translate(90 420)">
  <path d="M0 0 C56 -149 95 -127 123 -186 C87 -42 36 -15 0 0 Z" fill="#155b44"/>
  <path d="M20 -8 C-56 -104 -84 -104 -112 -155 C-78 -30 -25 -12 20 -8 Z" fill="#155b44" opacity="0.92"/>
</g>

<g transform="translate(175 420)">
  <path d="M0 0 C37 -186 63 -158 81 -232 C57 -52 24 -19 0 0 Z" fill="#092f2a"/>
  <path d="M20 -8 C-37 -130 -56 -130 -74 -193 C-52 -37 -17 -15 20 -8 Z" fill="#092f2a" opacity="0.92"/>
</g>

<g transform="translate(260 420)">
  <path d="M0 0 C48 -88 82 -75 106 -110 C74 -25 31 -9 0 0 Z" fill="#063f32"/>
  <path d="M20 -8 C-48 -62 -72 -62 -96 -92 C-67 -18 -22 -7 20 -8 Z" fill="#063f32" opacity="0.92"/>
</g>

<g transform="translate(345 420)">
  <path d="M0 0 C59 -125 100 -106 130 -156 C91 -35 38 -12 0 0 Z" fill="#0b4b3a"/>
  <path d="M20 -8 C-59 -88 -88 -88 -118 -130 C-83 -25 -27 -10 20 -8 Z" fill="#0b4b3a" opacity="0.92"/>
</g>

<g transform="translate(430 420)">
  <path d="M0 0 C40 -162 68 -138 88 -202 C62 -45 26 -16 0 0 Z" fill="#155b44"/>
  <path d="M20 -8 C-40 -113 -60 -113 -80 -168 C-56 -32 -18 -13 20 -8 Z" fill="#155b44" opacity="0.92"/>
</g>

<g transform="translate(515 420)">
  <path d="M0 0 C51 -199 87 -169 112 -249 C79 -56 33 -20 0 0 Z" fill="#092f2a"/>
  <path d="M20 -8 C-51 -139 -76 -139 -102 -207 C-71 -40 -23 -16 20 -8 Z" fill="#092f2a" opacity="0.92"/>
</g>

<g transform="translate(600 420)">
  <path d="M0 0 C62 -101 105 -86 136 -126 C96 -28 40 -10 0 0 Z" fill="#063f32"/>
  <path d="M20 -8 C-62 -71 -93 -71 -124 -105 C-87 -20 -28 -8 20 -8 Z" fill="#063f32" opacity="0.92"/>
</g>

<g transform="translate(685 420)">
  <path d="M0 0 C43 -138 73 -117 95 -172 C67 -39 28 -14 0 0 Z" fill="#0b4b3a"/>
  <path d="M20 -8 C-43 -97 -64 -97 -86 -144 C-60 -28 -19 -11 20 -8 Z" fill="#0b4b3a" opacity="0.92"/>
</g>

<g transform="translate(770 420)">
  <path d="M0 0 C54 -175 92 -149 119 -219 C84 -49 35 -18 0 0 Z" fill="#155b44"/>
  <path d="M20 -8 C-54 -122 -81 -122 -108 -182 C-76 -35 -24 -14 20 -8 Z" fill="#155b44" opacity="0.92"/>
</g>

<g transform="translate(855 420)">
  <path d="M0 0 C35 -77 60 -65 77 -96 C54 -22 23 -8 0 0 Z" fill="#092f2a"/>
  <path d="M20 -8 C-35 -54 -52 -54 -70 -80 C-49 -15 -16 -6 20 -8 Z" fill="#092f2a" opacity="0.92"/>
</g>

<g transform="translate(940 420)">
  <path d="M0 0 C46 -114 78 -97 101 -142 C71 -32 30 -11 0 0 Z" fill="#063f32"/>
  <path d="M20 -8 C-46 -80 -69 -80 -92 -119 C-64 -23 -21 -9 20 -8 Z" fill="#063f32" opacity="0.92"/>
</g>

<g transform="translate(1025 420)">
  <path d="M0 0 C57 -151 97 -128 125 -189 C88 -42 37 -15 0 0 Z" fill="#0b4b3a"/>
  <path d="M20 -8 C-57 -106 -86 -106 -114 -157 C-80 -30 -26 -12 20 -8 Z" fill="#0b4b3a" opacity="0.92"/>
</g>

<g transform="translate(1110 420)">
  <path d="M0 0 C38 -188 65 -160 84 -235 C59 -53 25 -19 0 0 Z" fill="#155b44"/>
  <path d="M20 -8 C-38 -132 -57 -132 -76 -196 C-53 -38 -17 -15 20 -8 Z" fill="#155b44" opacity="0.92"/>
</g>

<g transform="translate(1195 420)">
  <path d="M0 0 C49 -90 83 -76 108 -112 C76 -25 32 -9 0 0 Z" fill="#092f2a"/>
  <path d="M20 -8 C-49 -63 -74 -63 -98 -94 C-69 -18 -22 -7 20 -8 Z" fill="#092f2a" opacity="0.92"/>
</g>

<g transform="translate(1280 420)">
  <path d="M0 0 C60 -127 102 -108 132 -159 C93 -36 39 -13 0 0 Z" fill="#063f32"/>
  <path d="M20 -8 C-60 -89 -90 -89 -120 -132 C-84 -25 -27 -10 20 -8 Z" fill="#063f32" opacity="0.92"/>
</g>

<g transform="translate(1365 420)">
  <path d="M0 0 C41 -164 70 -139 90 -205 C64 -46 27 -16 0 0 Z" fill="#0b4b3a"/>
  <path d="M20 -8 C-41 -115 -62 -115 -82 -171 C-57 -33 -18 -13 20 -8 Z" fill="#0b4b3a" opacity="0.92"/>
</g>

<g transform="translate(1450 420)">
  <path d="M0 0 C52 -201 88 -171 114 -251 C81 -56 34 -20 0 0 Z" fill="#155b44"/>
  <path d="M20 -8 C-52 -141 -78 -141 -104 -209 C-73 -40 -23 -16 20 -8 Z" fill="#155b44" opacity="0.92"/>
</g>

<g transform="translate(1535 420)">
  <path d="M0 0 C63 -103 107 -88 139 -129 C98 -29 41 -10 0 0 Z" fill="#092f2a"/>
  <path d="M20 -8 C-63 -72 -94 -72 -126 -107 C-88 -21 -28 -8 20 -8 Z" fill="#092f2a" opacity="0.92"/>
</g>

<g transform="translate(1620 420)">
  <path d="M0 0 C44 -140 75 -119 97 -175 C68 -39 29 -14 0 0 Z" fill="#063f32"/>
  <path d="M20 -8 C-44 -98 -66 -98 -88 -146 C-62 -28 -20 -11 20 -8 Z" fill="#063f32" opacity="0.92"/>
</g>

<g transform="translate(1705 420)">
  <path d="M0 0 C55 -177 94 -150 121 -221 C85 -50 36 -18 0 0 Z" fill="#0b4b3a"/>
  <path d="M20 -8 C-55 -124 -82 -124 -110 -184 C-77 -35 -25 -14 20 -8 Z" fill="#0b4b3a" opacity="0.92"/>
</g>

<g transform="translate(1790 420)">
  <path d="M0 0 C36 -79 61 -67 79 -99 C56 -22 23 -8 0 0 Z" fill="#155b44"/>
  <path d="M20 -8 C-36 -55 -54 -55 -72 -82 C-50 -16 -16 -6 20 -8 Z" fill="#155b44" opacity="0.92"/>
</g>

<g transform="translate(1875 420)">
  <path d="M0 0 C47 -116 80 -99 103 -145 C73 -32 31 -12 0 0 Z" fill="#092f2a"/>
  <path d="M20 -8 C-47 -81 -70 -81 -94 -121 C-66 -23 -21 -9 20 -8 Z" fill="#092f2a" opacity="0.92"/>
</g>

<g transform="translate(1960 420)">
  <path d="M0 0 C58 -153 99 -130 128 -191 C90 -43 38 -15 0 0 Z" fill="#063f32"/>
  <path d="M20 -8 C-58 -107 -87 -107 -116 -159 C-81 -31 -26 -12 20 -8 Z" fill="#063f32" opacity="0.92"/>
</g>

<g transform="translate(2045 420)">
  <path d="M0 0 C39 -190 66 -162 86 -238 C60 -53 25 -19 0 0 Z" fill="#0b4b3a"/>
  <path d="M20 -8 C-39 -133 -58 -133 -78 -198 C-55 -38 -18 -15 20 -8 Z" fill="#0b4b3a" opacity="0.92"/>
</g>

<g transform="translate(2130 420)">
  <path d="M0 0 C50 -92 85 -78 110 -115 C78 -26 32 -9 0 0 Z" fill="#155b44"/>
  <path d="M20 -8 C-50 -64 -75 -64 -100 -96 C-70 -18 -22 -7 20 -8 Z" fill="#155b44" opacity="0.92"/>
</g>

<g transform="translate(2215 420)">
  <path d="M0 0 C61 -129 104 -110 134 -161 C95 -36 40 -13 0 0 Z" fill="#092f2a"/>
  <path d="M20 -8 C-61 -90 -92 -90 -122 -134 C-85 -26 -27 -10 20 -8 Z" fill="#092f2a" opacity="0.92"/>
</g>

<g transform="translate(2300 420)">
  <path d="M0 0 C42 -166 71 -141 92 -208 C65 -46 27 -17 0 0 Z" fill="#063f32"/>
  <path d="M20 -8 C-42 -116 -63 -116 -84 -173 C-59 -33 -19 -13 20 -8 Z" fill="#063f32" opacity="0.92"/>
</g>

<g transform="translate(2385 420)">
  <path d="M0 0 C53 -203 90 -173 117 -254 C82 -57 34 -20 0 0 Z" fill="#0b4b3a"/>
  <path d="M20 -8 C-53 -142 -80 -142 -106 -211 C-74 -41 -24 -16 20 -8 Z" fill="#0b4b3a" opacity="0.92"/>
</g>

<g transform="translate(2470 420)">
  <path d="M0 0 C34 -105 58 -89 75 -131 C53 -29 22 -10 0 0 Z" fill="#155b44"/>
  <path d="M20 -8 C-34 -74 -51 -74 -68 -109 C-48 -21 -15 -8 20 -8 Z" fill="#155b44" opacity="0.92"/>
</g>

<g transform="translate(2555 420)">
  <path d="M0 0 C45 -142 76 -121 99 -178 C70 -40 29 -14 0 0 Z" fill="#092f2a"/>
  <path d="M20 -8 C-45 -99 -68 -99 -90 -148 C-63 -28 -20 -11 20 -8 Z" fill="#092f2a" opacity="0.92"/>
</g>

<g transform="translate(2640 420)">
  <path d="M0 0 C56 -179 95 -152 123 -224 C87 -50 36 -18 0 0 Z" fill="#063f32"/>
  <path d="M20 -8 C-56 -125 -84 -125 -112 -186 C-78 -36 -25 -14 20 -8 Z" fill="#063f32" opacity="0.92"/>
</g>

<g transform="translate(2725 420)">
  <path d="M0 0 C37 -81 63 -69 81 -101 C57 -23 24 -8 0 0 Z" fill="#0b4b3a"/>
  <path d="M20 -8 C-37 -57 -56 -57 -74 -84 C-52 -16 -17 -6 20 -8 Z" fill="#0b4b3a" opacity="0.92"/>
</g>

<g transform="translate(2810 420)">
  <path d="M0 0 C48 -118 82 -100 106 -148 C74 -33 31 -12 0 0 Z" fill="#155b44"/>
  <path d="M20 -8 C-48 -83 -72 -83 -96 -123 C-67 -24 -22 -9 20 -8 Z" fill="#155b44" opacity="0.92"/>
</g>
<path d="M0 420 C290 376 574 386 844 405 C1120 425 1434 398 1735 382 C2050 365 2352 392 2800 352 L2800 420 Z" fill="#031d1a" opacity="0.72"/>

<g transform="translate(40.0 110.0) scale(0.920 0.920)">
  <path d="M0 16 C-8 72 -11 150 -7 250" stroke="#08362e" stroke-width="8" fill="none" stroke-linecap="round"/>
  <path d="M-5 118 C-55 90 -78 104 -98 142 C-52 151 -27 145 -7 127 Z" fill="#0b4738"/>
  <path d="M-2 166 C38 132 71 143 94 175 C55 188 25 187 2 174 Z" fill="#155b44"/>
  <path d="M-8 224 C-44 205 -75 216 -93 244 C-55 257 -28 252 -8 234 Z" fill="#0e4939"/>
  <g transform="translate(-62 -18) rotate(-8)">
    <path d="M0 20 L105 0 L138 24 L128 72 L19 88 L-12 62 Z" fill="#f3c747" stroke="#071a33" stroke-width="5" />
    <path d="M18 84 L128 68 L121 100 L13 113 Z" fill="#0a332b" stroke="#071a33" stroke-width="4" />
    <path d="M104 30 A28 28 0 1 0 104.1 30" fill="#071a33" />
    <circle cx="104" cy="30" r="15" fill="#0e4939"/>
    <circle cx="104" cy="30" r="7" fill="#020a10"/>
    <circle cx="110" cy="24" r="3.5" fill="#f7dc77"/>
    <path d="M-12 62 L19 88 L13 113 L-20 86 Z" fill="#0b342e" stroke="#071a33" stroke-width="4" />
  </g>
</g>

<g transform="translate(185.0 140.0) scale(-0.780 0.780)">
  <path d="M0 16 C-8 72 -11 150 -7 250" stroke="#08362e" stroke-width="8" fill="none" stroke-linecap="round"/>
  <path d="M-5 118 C-55 90 -78 104 -98 142 C-52 151 -27 145 -7 127 Z" fill="#0b4738"/>
  <path d="M-2 166 C38 132 71 143 94 175 C55 188 25 187 2 174 Z" fill="#155b44"/>
  <path d="M-8 224 C-44 205 -75 216 -93 244 C-55 257 -28 252 -8 234 Z" fill="#0e4939"/>
  <g transform="translate(-62 -18) rotate(-8)">
    <path d="M0 20 L105 0 L138 24 L128 72 L19 88 L-12 62 Z" fill="#f3c747" stroke="#071a33" stroke-width="5" />
    <path d="M18 84 L128 68 L121 100 L13 113 Z" fill="#0a332b" stroke="#071a33" stroke-width="4" />
    <path d="M104 30 A28 28 0 1 0 104.1 30" fill="#071a33" />
    <circle cx="104" cy="30" r="15" fill="#0e4939"/>
    <circle cx="104" cy="30" r="7" fill="#020a10"/>
    <circle cx="110" cy="24" r="3.5" fill="#f7dc77"/>
    <path d="M-12 62 L19 88 L13 113 L-20 86 Z" fill="#0b342e" stroke="#071a33" stroke-width="4" />
  </g>
</g>

<g transform="translate(315.0 88.0) scale(1.000 1.000)">
  <path d="M0 16 C-8 72 -11 150 -7 250" stroke="#08362e" stroke-width="8" fill="none" stroke-linecap="round"/>
  <path d="M-5 118 C-55 90 -78 104 -98 142 C-52 151 -27 145 -7 127 Z" fill="#0b4738"/>
  <path d="M-2 166 C38 132 71 143 94 175 C55 188 25 187 2 174 Z" fill="#155b44"/>
  <path d="M-8 224 C-44 205 -75 216 -93 244 C-55 257 -28 252 -8 234 Z" fill="#0e4939"/>
  <g transform="translate(-62 -18) rotate(-8)">
    <path d="M0 20 L105 0 L138 24 L128 72 L19 88 L-12 62 Z" fill="#f3c747" stroke="#071a33" stroke-width="5" />
    <path d="M18 84 L128 68 L121 100 L13 113 Z" fill="#0a332b" stroke="#071a33" stroke-width="4" />
    <path d="M104 30 A28 28 0 1 0 104.1 30" fill="#071a33" />
    <circle cx="104" cy="30" r="15" fill="#0e4939"/>
    <circle cx="104" cy="30" r="7" fill="#020a10"/>
    <circle cx="110" cy="24" r="3.5" fill="#f7dc77"/>
    <path d="M-12 62 L19 88 L13 113 L-20 86 Z" fill="#0b342e" stroke="#071a33" stroke-width="4" />
  </g>
</g>

<g transform="translate(455.0 164.0) scale(-0.720 0.720)">
  <path d="M0 16 C-8 72 -11 150 -7 250" stroke="#08362e" stroke-width="8" fill="none" stroke-linecap="round"/>
  <path d="M-5 118 C-55 90 -78 104 -98 142 C-52 151 -27 145 -7 127 Z" fill="#0b4738"/>
  <path d="M-2 166 C38 132 71 143 94 175 C55 188 25 187 2 174 Z" fill="#155b44"/>
  <path d="M-8 224 C-44 205 -75 216 -93 244 C-55 257 -28 252 -8 234 Z" fill="#0e4939"/>
  <g transform="translate(-62 -18) rotate(-8)">
    <path d="M0 20 L105 0 L138 24 L128 72 L19 88 L-12 62 Z" fill="#f3c747" stroke="#071a33" stroke-width="5" />
    <path d="M18 84 L128 68 L121 100 L13 113 Z" fill="#0a332b" stroke="#071a33" stroke-width="4" />
    <path d="M104 30 A28 28 0 1 0 104.1 30" fill="#071a33" />
    <circle cx="104" cy="30" r="15" fill="#0e4939"/>
    <circle cx="104" cy="30" r="7" fill="#020a10"/>
    <circle cx="110" cy="24" r="3.5" fill="#f7dc77"/>
    <path d="M-12 62 L19 88 L13 113 L-20 86 Z" fill="#0b342e" stroke="#071a33" stroke-width="4" />
  </g>
</g>

<g transform="translate(590.0 122.0) scale(0.880 0.880)">
  <path d="M0 16 C-8 72 -11 150 -7 250" stroke="#08362e" stroke-width="8" fill="none" stroke-linecap="round"/>
  <path d="M-5 118 C-55 90 -78 104 -98 142 C-52 151 -27 145 -7 127 Z" fill="#0b4738"/>
  <path d="M-2 166 C38 132 71 143 94 175 C55 188 25 187 2 174 Z" fill="#155b44"/>
  <path d="M-8 224 C-44 205 -75 216 -93 244 C-55 257 -28 252 -8 234 Z" fill="#0e4939"/>
  <g transform="translate(-62 -18) rotate(-8)">
    <path d="M0 20 L105 0 L138 24 L128 72 L19 88 L-12 62 Z" fill="#f3c747" stroke="#071a33" stroke-width="5" />
    <path d="M18 84 L128 68 L121 100 L13 113 Z" fill="#0a332b" stroke="#071a33" stroke-width="4" />
    <path d="M104 30 A28 28 0 1 0 104.1 30" fill="#071a33" />
    <circle cx="104" cy="30" r="15" fill="#0e4939"/>
    <circle cx="104" cy="30" r="7" fill="#020a10"/>
    <circle cx="110" cy="24" r="3.5" fill="#f7dc77"/>
    <path d="M-12 62 L19 88 L13 113 L-20 86 Z" fill="#0b342e" stroke="#071a33" stroke-width="4" />
  </g>
</g>

<g transform="translate(725.0 210.0) scale(-0.620 0.620)">
  <path d="M0 16 C-8 72 -11 150 -7 250" stroke="#08362e" stroke-width="8" fill="none" stroke-linecap="round"/>
  <path d="M-5 118 C-55 90 -78 104 -98 142 C-52 151 -27 145 -7 127 Z" fill="#0b4738"/>
  <path d="M-2 166 C38 132 71 143 94 175 C55 188 25 187 2 174 Z" fill="#155b44"/>
  <path d="M-8 224 C-44 205 -75 216 -93 244 C-55 257 -28 252 -8 234 Z" fill="#0e4939"/>
  <g transform="translate(-62 -18) rotate(-8)">
    <path d="M0 20 L105 0 L138 24 L128 72 L19 88 L-12 62 Z" fill="#f3c747" stroke="#071a33" stroke-width="5" />
    <path d="M18 84 L128 68 L121 100 L13 113 Z" fill="#0a332b" stroke="#071a33" stroke-width="4" />
    <path d="M104 30 A28 28 0 1 0 104.1 30" fill="#071a33" />
    <circle cx="104" cy="30" r="15" fill="#0e4939"/>
    <circle cx="104" cy="30" r="7" fill="#020a10"/>
    <circle cx="110" cy="24" r="3.5" fill="#f7dc77"/>
    <path d="M-12 62 L19 88 L13 113 L-20 86 Z" fill="#0b342e" stroke="#071a33" stroke-width="4" />
  </g>
</g>

<g transform="translate(860.0 74.0) scale(1.040 1.040)">
  <path d="M0 16 C-8 72 -11 150 -7 250" stroke="#08362e" stroke-width="8" fill="none" stroke-linecap="round"/>
  <path d="M-5 118 C-55 90 -78 104 -98 142 C-52 151 -27 145 -7 127 Z" fill="#0b4738"/>
  <path d="M-2 166 C38 132 71 143 94 175 C55 188 25 187 2 174 Z" fill="#155b44"/>
  <path d="M-8 224 C-44 205 -75 216 -93 244 C-55 257 -28 252 -8 234 Z" fill="#0e4939"/>
  <g transform="translate(-62 -18) rotate(-8)">
    <path d="M0 20 L105 0 L138 24 L128 72 L19 88 L-12 62 Z" fill="#f3c747" stroke="#071a33" stroke-width="5" />
    <path d="M18 84 L128 68 L121 100 L13 113 Z" fill="#0a332b" stroke="#071a33" stroke-width="4" />
    <path d="M104 30 A28 28 0 1 0 104.1 30" fill="#071a33" />
    <circle cx="104" cy="30" r="15" fill="#0e4939"/>
    <circle cx="104" cy="30" r="7" fill="#020a10"/>
    <circle cx="110" cy="24" r="3.5" fill="#f7dc77"/>
    <path d="M-12 62 L19 88 L13 113 L-20 86 Z" fill="#0b342e" stroke="#071a33" stroke-width="4" />
  </g>
</g>

<g transform="translate(1015.0 152.0) scale(-0.820 0.820)">
  <path d="M0 16 C-8 72 -11 150 -7 250" stroke="#08362e" stroke-width="8" fill="none" stroke-linecap="round"/>
  <path d="M-5 118 C-55 90 -78 104 -98 142 C-52 151 -27 145 -7 127 Z" fill="#0b4738"/>
  <path d="M-2 166 C38 132 71 143 94 175 C55 188 25 187 2 174 Z" fill="#155b44"/>
  <path d="M-8 224 C-44 205 -75 216 -93 244 C-55 257 -28 252 -8 234 Z" fill="#0e4939"/>
  <g transform="translate(-62 -18) rotate(-8)">
    <path d="M0 20 L105 0 L138 24 L128 72 L19 88 L-12 62 Z" fill="#f3c747" stroke="#071a33" stroke-width="5" />
    <path d="M18 84 L128 68 L121 100 L13 113 Z" fill="#0a332b" stroke="#071a33" stroke-width="4" />
    <path d="M104 30 A28 28 0 1 0 104.1 30" fill="#071a33" />
    <circle cx="104" cy="30" r="15" fill="#0e4939"/>
    <circle cx="104" cy="30" r="7" fill="#020a10"/>
    <circle cx="110" cy="24" r="3.5" fill="#f7dc77"/>
    <path d="M-12 62 L19 88 L13 113 L-20 86 Z" fill="#0b342e" stroke="#071a33" stroke-width="4" />
  </g>
</g>

<g transform="translate(1135.0 111.0) scale(0.940 0.940)">
  <path d="M0 16 C-8 72 -11 150 -7 250" stroke="#08362e" stroke-width="8" fill="none" stroke-linecap="round"/>
  <path d="M-5 118 C-55 90 -78 104 -98 142 C-52 151 -27 145 -7 127 Z" fill="#0b4738"/>
  <path d="M-2 166 C38 132 71 143 94 175 C55 188 25 187 2 174 Z" fill="#155b44"/>
  <path d="M-8 224 C-44 205 -75 216 -93 244 C-55 257 -28 252 -8 234 Z" fill="#0e4939"/>
  <g transform="translate(-62 -18) rotate(-8)">
    <path d="M0 20 L105 0 L138 24 L128 72 L19 88 L-12 62 Z" fill="#f3c747" stroke="#071a33" stroke-width="5" />
    <path d="M18 84 L128 68 L121 100 L13 113 Z" fill="#0a332b" stroke="#071a33" stroke-width="4" />
    <path d="M104 30 A28 28 0 1 0 104.1 30" fill="#071a33" />
    <circle cx="104" cy="30" r="15" fill="#0e4939"/>
    <circle cx="104" cy="30" r="7" fill="#020a10"/>
    <circle cx="110" cy="24" r="3.5" fill="#f7dc77"/>
    <path d="M-12 62 L19 88 L13 113 L-20 86 Z" fill="#0b342e" stroke="#071a33" stroke-width="4" />
  </g>
</g>

<g transform="translate(1285.0 190.0) scale(-0.680 0.680)">
  <path d="M0 16 C-8 72 -11 150 -7 250" stroke="#08362e" stroke-width="8" fill="none" stroke-linecap="round"/>
  <path d="M-5 118 C-55 90 -78 104 -98 142 C-52 151 -27 145 -7 127 Z" fill="#0b4738"/>
  <path d="M-2 166 C38 132 71 143 94 175 C55 188 25 187 2 174 Z" fill="#155b44"/>
  <path d="M-8 224 C-44 205 -75 216 -93 244 C-55 257 -28 252 -8 234 Z" fill="#0e4939"/>
  <g transform="translate(-62 -18) rotate(-8)">
    <path d="M0 20 L105 0 L138 24 L128 72 L19 88 L-12 62 Z" fill="#f3c747" stroke="#071a33" stroke-width="5" />
    <path d="M18 84 L128 68 L121 100 L13 113 Z" fill="#0a332b" stroke="#071a33" stroke-width="4" />
    <path d="M104 30 A28 28 0 1 0 104.1 30" fill="#071a33" />
    <circle cx="104" cy="30" r="15" fill="#0e4939"/>
    <circle cx="104" cy="30" r="7" fill="#020a10"/>
    <circle cx="110" cy="24" r="3.5" fill="#f7dc77"/>
    <path d="M-12 62 L19 88 L13 113 L-20 86 Z" fill="#0b342e" stroke="#071a33" stroke-width="4" />
  </g>
</g>

<g transform="translate(1410.0 126.0) scale(0.860 0.860)">
  <path d="M0 16 C-8 72 -11 150 -7 250" stroke="#08362e" stroke-width="8" fill="none" stroke-linecap="round"/>
  <path d="M-5 118 C-55 90 -78 104 -98 142 C-52 151 -27 145 -7 127 Z" fill="#0b4738"/>
  <path d="M-2 166 C38 132 71 143 94 175 C55 188 25 187 2 174 Z" fill="#155b44"/>
  <path d="M-8 224 C-44 205 -75 216 -93 244 C-55 257 -28 252 -8 234 Z" fill="#0e4939"/>
  <g transform="translate(-62 -18) rotate(-8)">
    <path d="M0 20 L105 0 L138 24 L128 72 L19 88 L-12 62 Z" fill="#f3c747" stroke="#071a33" stroke-width="5" />
    <path d="M18 84 L128 68 L121 100 L13 113 Z" fill="#0a332b" stroke="#071a33" stroke-width="4" />
    <path d="M104 30 A28 28 0 1 0 104.1 30" fill="#071a33" />
    <circle cx="104" cy="30" r="15" fill="#0e4939"/>
    <circle cx="104" cy="30" r="7" fill="#020a10"/>
    <circle cx="110" cy="24" r="3.5" fill="#f7dc77"/>
    <path d="M-12 62 L19 88 L13 113 L-20 86 Z" fill="#0b342e" stroke="#071a33" stroke-width="4" />
  </g>
</g>

<g transform="translate(1545.0 92.0) scale(-0.980 0.980)">
  <path d="M0 16 C-8 72 -11 150 -7 250" stroke="#08362e" stroke-width="8" fill="none" stroke-linecap="round"/>
  <path d="M-5 118 C-55 90 -78 104 -98 142 C-52 151 -27 145 -7 127 Z" fill="#0b4738"/>
  <path d="M-2 166 C38 132 71 143 94 175 C55 188 25 187 2 174 Z" fill="#155b44"/>
  <path d="M-8 224 C-44 205 -75 216 -93 244 C-55 257 -28 252 -8 234 Z" fill="#0e4939"/>
  <g transform="translate(-62 -18) rotate(-8)">
    <path d="M0 20 L105 0 L138 24 L128 72 L19 88 L-12 62 Z" fill="#f3c747" stroke="#071a33" stroke-width="5" />
    <path d="M18 84 L128 68 L121 100 L13 113 Z" fill="#0a332b" stroke="#071a33" stroke-width="4" />
    <path d="M104 30 A28 28 0 1 0 104.1 30" fill="#071a33" />
    <circle cx="104" cy="30" r="15" fill="#0e4939"/>
    <circle cx="104" cy="30" r="7" fill="#020a10"/>
    <circle cx="110" cy="24" r="3.5" fill="#f7dc77"/>
    <path d="M-12 62 L19 88 L13 113 L-20 86 Z" fill="#0b342e" stroke="#071a33" stroke-width="4" />
  </g>
</g>

<g transform="translate(1690.0 170.0) scale(0.720 0.720)">
  <path d="M0 16 C-8 72 -11 150 -7 250" stroke="#08362e" stroke-width="8" fill="none" stroke-linecap="round"/>
  <path d="M-5 118 C-55 90 -78 104 -98 142 C-52 151 -27 145 -7 127 Z" fill="#0b4738"/>
  <path d="M-2 166 C38 132 71 143 94 175 C55 188 25 187 2 174 Z" fill="#155b44"/>
  <path d="M-8 224 C-44 205 -75 216 -93 244 C-55 257 -28 252 -8 234 Z" fill="#0e4939"/>
  <g transform="translate(-62 -18) rotate(-8)">
    <path d="M0 20 L105 0 L138 24 L128 72 L19 88 L-12 62 Z" fill="#f3c747" stroke="#071a33" stroke-width="5" />
    <path d="M18 84 L128 68 L121 100 L13 113 Z" fill="#0a332b" stroke="#071a33" stroke-width="4" />
    <path d="M104 30 A28 28 0 1 0 104.1 30" fill="#071a33" />
    <circle cx="104" cy="30" r="15" fill="#0e4939"/>
    <circle cx="104" cy="30" r="7" fill="#020a10"/>
    <circle cx="110" cy="24" r="3.5" fill="#f7dc77"/>
    <path d="M-12 62 L19 88 L13 113 L-20 86 Z" fill="#0b342e" stroke="#071a33" stroke-width="4" />
  </g>
</g>

<g transform="translate(1815.0 122.0) scale(-0.860 0.860)">
  <path d="M0 16 C-8 72 -11 150 -7 250" stroke="#08362e" stroke-width="8" fill="none" stroke-linecap="round"/>
  <path d="M-5 118 C-55 90 -78 104 -98 142 C-52 151 -27 145 -7 127 Z" fill="#0b4738"/>
  <path d="M-2 166 C38 132 71 143 94 175 C55 188 25 187 2 174 Z" fill="#155b44"/>
  <path d="M-8 224 C-44 205 -75 216 -93 244 C-55 257 -28 252 -8 234 Z" fill="#0e4939"/>
  <g transform="translate(-62 -18) rotate(-8)">
    <path d="M0 20 L105 0 L138 24 L128 72 L19 88 L-12 62 Z" fill="#f3c747" stroke="#071a33" stroke-width="5" />
    <path d="M18 84 L128 68 L121 100 L13 113 Z" fill="#0a332b" stroke="#071a33" stroke-width="4" />
    <path d="M104 30 A28 28 0 1 0 104.1 30" fill="#071a33" />
    <circle cx="104" cy="30" r="15" fill="#0e4939"/>
    <circle cx="104" cy="30" r="7" fill="#020a10"/>
    <circle cx="110" cy="24" r="3.5" fill="#f7dc77"/>
    <path d="M-12 62 L19 88 L13 113 L-20 86 Z" fill="#0b342e" stroke="#071a33" stroke-width="4" />
  </g>
</g>

<g transform="translate(1955.0 72.0) scale(1.050 1.050)">
  <path d="M0 16 C-8 72 -11 150 -7 250" stroke="#08362e" stroke-width="8" fill="none" stroke-linecap="round"/>
  <path d="M-5 118 C-55 90 -78 104 -98 142 C-52 151 -27 145 -7 127 Z" fill="#0b4738"/>
  <path d="M-2 166 C38 132 71 143 94 175 C55 188 25 187 2 174 Z" fill="#155b44"/>
  <path d="M-8 224 C-44 205 -75 216 -93 244 C-55 257 -28 252 -8 234 Z" fill="#0e4939"/>
  <g transform="translate(-62 -18) rotate(-8)">
    <path d="M0 20 L105 0 L138 24 L128 72 L19 88 L-12 62 Z" fill="#f3c747" stroke="#071a33" stroke-width="5" />
    <path d="M18 84 L128 68 L121 100 L13 113 Z" fill="#0a332b" stroke="#071a33" stroke-width="4" />
    <path d="M104 30 A28 28 0 1 0 104.1 30" fill="#071a33" />
    <circle cx="104" cy="30" r="15" fill="#0e4939"/>
    <circle cx="104" cy="30" r="7" fill="#020a10"/>
    <circle cx="110" cy="24" r="3.5" fill="#f7dc77"/>
    <path d="M-12 62 L19 88 L13 113 L-20 86 Z" fill="#0b342e" stroke="#071a33" stroke-width="4" />
  </g>
</g>

<g transform="translate(2115.0 188.0) scale(-0.700 0.700)">
  <path d="M0 16 C-8 72 -11 150 -7 250" stroke="#08362e" stroke-width="8" fill="none" stroke-linecap="round"/>
  <path d="M-5 118 C-55 90 -78 104 -98 142 C-52 151 -27 145 -7 127 Z" fill="#0b4738"/>
  <path d="M-2 166 C38 132 71 143 94 175 C55 188 25 187 2 174 Z" fill="#155b44"/>
  <path d="M-8 224 C-44 205 -75 216 -93 244 C-55 257 -28 252 -8 234 Z" fill="#0e4939"/>
  <g transform="translate(-62 -18) rotate(-8)">
    <path d="M0 20 L105 0 L138 24 L128 72 L19 88 L-12 62 Z" fill="#f3c747" stroke="#071a33" stroke-width="5" />
    <path d="M18 84 L128 68 L121 100 L13 113 Z" fill="#0a332b" stroke="#071a33" stroke-width="4" />
    <path d="M104 30 A28 28 0 1 0 104.1 30" fill="#071a33" />
    <circle cx="104" cy="30" r="15" fill="#0e4939"/>
    <circle cx="104" cy="30" r="7" fill="#020a10"/>
    <circle cx="110" cy="24" r="3.5" fill="#f7dc77"/>
    <path d="M-12 62 L19 88 L13 113 L-20 86 Z" fill="#0b342e" stroke="#071a33" stroke-width="4" />
  </g>
</g>

<g transform="translate(2248.0 136.0) scale(0.840 0.840)">
  <path d="M0 16 C-8 72 -11 150 -7 250" stroke="#08362e" stroke-width="8" fill="none" stroke-linecap="round"/>
  <path d="M-5 118 C-55 90 -78 104 -98 142 C-52 151 -27 145 -7 127 Z" fill="#0b4738"/>
  <path d="M-2 166 C38 132 71 143 94 175 C55 188 25 187 2 174 Z" fill="#155b44"/>
  <path d="M-8 224 C-44 205 -75 216 -93 244 C-55 257 -28 252 -8 234 Z" fill="#0e4939"/>
  <g transform="translate(-62 -18) rotate(-8)">
    <path d="M0 20 L105 0 L138 24 L128 72 L19 88 L-12 62 Z" fill="#f3c747" stroke="#071a33" stroke-width="5" />
    <path d="M18 84 L128 68 L121 100 L13 113 Z" fill="#0a332b" stroke="#071a33" stroke-width="4" />
    <path d="M104 30 A28 28 0 1 0 104.1 30" fill="#071a33" />
    <circle cx="104" cy="30" r="15" fill="#0e4939"/>
    <circle cx="104" cy="30" r="7" fill="#020a10"/>
    <circle cx="110" cy="24" r="3.5" fill="#f7dc77"/>
    <path d="M-12 62 L19 88 L13 113 L-20 86 Z" fill="#0b342e" stroke="#071a33" stroke-width="4" />
  </g>
</g>

<g transform="translate(2385.0 98.0) scale(-0.980 0.980)">
  <path d="M0 16 C-8 72 -11 150 -7 250" stroke="#08362e" stroke-width="8" fill="none" stroke-linecap="round"/>
  <path d="M-5 118 C-55 90 -78 104 -98 142 C-52 151 -27 145 -7 127 Z" fill="#0b4738"/>
  <path d="M-2 166 C38 132 71 143 94 175 C55 188 25 187 2 174 Z" fill="#155b44"/>
  <path d="M-8 224 C-44 205 -75 216 -93 244 C-55 257 -28 252 -8 234 Z" fill="#0e4939"/>
  <g transform="translate(-62 -18) rotate(-8)">
    <path d="M0 20 L105 0 L138 24 L128 72 L19 88 L-12 62 Z" fill="#f3c747" stroke="#071a33" stroke-width="5" />
    <path d="M18 84 L128 68 L121 100 L13 113 Z" fill="#0a332b" stroke="#071a33" stroke-width="4" />
    <path d="M104 30 A28 28 0 1 0 104.1 30" fill="#071a33" />
    <circle cx="104" cy="30" r="15" fill="#0e4939"/>
    <circle cx="104" cy="30" r="7" fill="#020a10"/>
    <circle cx="110" cy="24" r="3.5" fill="#f7dc77"/>
    <path d="M-12 62 L19 88 L13 113 L-20 86 Z" fill="#0b342e" stroke="#071a33" stroke-width="4" />
  </g>
</g>

<g transform="translate(2540.0 164.0) scale(0.760 0.760)">
  <path d="M0 16 C-8 72 -11 150 -7 250" stroke="#08362e" stroke-width="8" fill="none" stroke-linecap="round"/>
  <path d="M-5 118 C-55 90 -78 104 -98 142 C-52 151 -27 145 -7 127 Z" fill="#0b4738"/>
  <path d="M-2 166 C38 132 71 143 94 175 C55 188 25 187 2 174 Z" fill="#155b44"/>
  <path d="M-8 224 C-44 205 -75 216 -93 244 C-55 257 -28 252 -8 234 Z" fill="#0e4939"/>
  <g transform="translate(-62 -18) rotate(-8)">
    <path d="M0 20 L105 0 L138 24 L128 72 L19 88 L-12 62 Z" fill="#f3c747" stroke="#071a33" stroke-width="5" />
    <path d="M18 84 L128 68 L121 100 L13 113 Z" fill="#0a332b" stroke="#071a33" stroke-width="4" />
    <path d="M104 30 A28 28 0 1 0 104.1 30" fill="#071a33" />
    <circle cx="104" cy="30" r="15" fill="#0e4939"/>
    <circle cx="104" cy="30" r="7" fill="#020a10"/>
    <circle cx="110" cy="24" r="3.5" fill="#f7dc77"/>
    <path d="M-12 62 L19 88 L13 113 L-20 86 Z" fill="#0b342e" stroke="#071a33" stroke-width="4" />
  </g>
</g>

<g transform="translate(2675.0 114.0) scale(-0.900 0.900)">
  <path d="M0 16 C-8 72 -11 150 -7 250" stroke="#08362e" stroke-width="8" fill="none" stroke-linecap="round"/>
  <path d="M-5 118 C-55 90 -78 104 -98 142 C-52 151 -27 145 -7 127 Z" fill="#0b4738"/>
  <path d="M-2 166 C38 132 71 143 94 175 C55 188 25 187 2 174 Z" fill="#155b44"/>
  <path d="M-8 224 C-44 205 -75 216 -93 244 C-55 257 -28 252 -8 234 Z" fill="#0e4939"/>
  <g transform="translate(-62 -18) rotate(-8)">
    <path d="M0 20 L105 0 L138 24 L128 72 L19 88 L-12 62 Z" fill="#f3c747" stroke="#071a33" stroke-width="5" />
    <path d="M18 84 L128 68 L121 100 L13 113 Z" fill="#0a332b" stroke="#071a33" stroke-width="4" />
    <path d="M104 30 A28 28 0 1 0 104.1 30" fill="#071a33" />
    <circle cx="104" cy="30" r="15" fill="#0e4939"/>
    <circle cx="104" cy="30" r="7" fill="#020a10"/>
    <circle cx="110" cy="24" r="3.5" fill="#f7dc77"/>
    <path d="M-12 62 L19 88 L13 113 L-20 86 Z" fill="#0b342e" stroke="#071a33" stroke-width="4" />
  </g>
</g>
</svg>